<svg width="53" height="43" viewBox="0 0 53 43" fill="none" xmlns="http://www.w3.org/2000/svg"><path d="M48.951 15.876H39.1327C40.182 18.3227 39.7214 21.2672 37.727 23.2616L26.46 34.5286V38.367C26.46 40.559 28.237 42.336 30.429 42.336H48.951C51.143 42.336 52.92 40.559 52.92 38.367V19.845C52.92 17.653 51.143 15.876 48.951 15.876ZM39.69 31.0905C38.5944 31.0905 37.7055 30.2016 37.7055 29.106C37.7055 28.0096 38.5944 27.1215 39.69 27.1215C40.7856 27.1215 41.6745 28.0096 41.6745 29.106C41.6745 30.2016 40.7856 31.0905 39.69 31.0905ZM35.8558 15.6527L21.3913 1.18822C19.807 -0.396073 17.2379 -0.396073 15.6536 1.18822L1.18822 15.6527C-0.396073 17.237 -0.396073 19.8061 1.18822 21.3904L15.6527 35.8558C17.237 37.4401 19.8061 37.4401 21.3904 35.8558L35.8558 21.3913C37.4401 19.8061 37.4401 17.237 35.8558 15.6527ZM7.938 20.5065C6.84239 20.5065 5.9535 19.6176 5.9535 18.522C5.9535 17.4256 6.84239 16.5375 7.938 16.5375C9.03361 16.5375 9.9225 17.4256 9.9225 18.522C9.9225 19.6176 9.03361 20.5065 7.938 20.5065ZM18.522 31.0905C17.4264 31.0905 16.5375 30.2016 16.5375 29.106C16.5375 28.0096 17.4264 27.1215 18.522 27.1215C19.6176 27.1215 20.5065 28.0096 20.5065 29.106C20.5065 30.2016 19.6176 31.0905 18.522 31.0905ZM18.522 20.5065C17.4264 20.5065 16.5375 19.6176 16.5375 18.522C16.5375 17.4256 17.4264 16.5375 18.522 16.5375C19.6176 16.5375 20.5065 17.4256 20.5065 18.522C20.5065 19.6176 19.6176 20.5065 18.522 20.5065ZM18.522 9.9225C17.4264 9.9225 16.5375 9.03361 16.5375 7.938C16.5375 6.84156 17.4264 5.9535 18.522 5.9535C19.6176 5.9535 20.5065 6.84156 20.5065 7.938C20.5065 9.03361 19.6176 9.9225 18.522 9.9225ZM29.106 20.5065C28.0104 20.5065 27.1215 19.6176 27.1215 18.522C27.1215 17.4256 28.0104 16.5375 29.106 16.5375C30.2016 16.5375 31.0905 17.4256 31.0905 18.522C31.0905 19.6176 30.2016 20.5065 29.106 20.5065Z" fill="#21AFFF"/></svg>
